<svg width="19" height="18" viewBox="0 0 19 18" fill="none" xmlns="http://www.w3.org/2000/svg">
<path d="M17.533 3.16853C17.3015 2.57611 16.9477 2.03811 16.4943 1.58898C16.0409 1.13985 15.4979 0.789479 14.9 0.560296C14.2003 0.300025 13.4611 0.159291 12.714 0.144088C11.751 0.102468 11.446 0.0905762 9.00395 0.0905762C6.56195 0.0905762 6.24895 0.0905761 5.29395 0.144088C4.54734 0.158514 3.80871 0.299276 3.10995 0.560296C2.51189 0.789212 1.96872 1.13949 1.51529 1.58865C1.06186 2.03782 0.708182 2.57595 0.476953 3.16853C0.214258 3.86183 0.0725676 4.59438 0.0579531 5.33479C0.0149531 6.28811 0.00195312 6.59035 0.00195312 9.01129C0.00195312 11.4312 0.00195312 11.7394 0.0579531 12.6878C0.0729531 13.429 0.213953 14.1604 0.476953 14.855C0.708831 15.4474 1.06285 15.9853 1.51639 16.4344C1.96993 16.8835 2.51302 17.2339 3.11095 17.4633C3.80839 17.734 4.54732 17.8848 5.29595 17.9092C6.25895 17.9508 6.56395 17.9637 9.00595 17.9637C11.448 17.9637 11.761 17.9637 12.716 17.9092C13.4631 17.8942 14.2022 17.7538 14.902 17.494C15.4997 17.2643 16.0426 16.9136 16.4959 16.4644C16.9493 16.0151 17.3031 15.4771 17.535 14.8848C17.798 14.1911 17.939 13.4598 17.954 12.7185C17.997 11.7652 18.01 11.463 18.01 9.04201C18.01 6.62107 18.01 6.31387 17.954 5.36551C17.9423 4.61463 17.7999 3.87138 17.533 3.16853ZM16.315 12.6145C16.3085 13.1856 16.2033 13.7513 16.004 14.2872C15.8538 14.6726 15.6239 15.0225 15.329 15.3145C15.0342 15.6066 14.6809 15.8342 14.292 15.9828C13.7572 16.1794 13.1923 16.2837 12.622 16.291C11.672 16.3346 11.404 16.3455 8.96795 16.3455C6.52995 16.3455 6.28095 16.3455 5.31295 16.291C4.74288 16.284 4.17828 16.1798 3.64395 15.9828C3.25364 15.8351 2.89895 15.6079 2.60284 15.3158C2.30673 15.0237 2.07579 14.6733 1.92495 14.2872C1.7284 13.7571 1.62326 13.198 1.61395 12.6333C1.57095 11.6919 1.56095 11.4263 1.56095 9.01229C1.56095 6.59729 1.56095 6.35054 1.61395 5.39029C1.62042 4.81951 1.72561 4.25406 1.92495 3.71852C2.22995 2.93664 2.85495 2.32125 3.64395 2.02198C4.17854 1.8259 4.74298 1.72168 5.31295 1.71379C6.26395 1.67117 6.53095 1.65928 8.96795 1.65928C11.405 1.65928 11.655 1.65928 12.622 1.71379C13.1924 1.72059 13.7573 1.82485 14.292 2.02198C14.6809 2.17089 15.0341 2.39875 15.3289 2.69091C15.6238 2.98308 15.8537 3.3331 16.004 3.71852C16.2005 4.24864 16.3056 4.80775 16.315 5.37245C16.358 6.31486 16.369 6.57945 16.369 8.99445C16.369 11.4085 16.369 11.6681 16.326 12.6155H16.315V12.6145Z" fill="#6E7191"/>
</svg>
